<?xml version="1.0" encoding="utf-8"?>
<!-- Generator: Adobe Illustrator 15.0.0, SVG Export Plug-In . SVG Version: 6.00 Build 0)  -->
<!DOCTYPE svg PUBLIC "-//W3C//DTD SVG 1.1//EN" "http://www.w3.org/Graphics/SVG/1.1/DTD/svg11.dtd">
<svg version="1.1" xmlns="http://www.w3.org/2000/svg" xmlns:xlink="http://www.w3.org/1999/xlink" x="0px" y="0px" width="60px"
	 height="60px" viewBox="0 0 60 60" enable-background="new 0 0 60 60" xml:space="preserve">
<g id="virtualization" display="none">
	<path display="inline" fill="#20B7E8" d="M24.594,21.956c0,1.417-1.149,2.566-2.566,2.566h-5.432c-1.417,0-2.566-1.149-2.566-2.566
		V17.45c0-1.417,1.149-2.566,2.566-2.566h5.432c1.417,0,2.566,1.149,2.566,2.566V21.956z"/>
	<path display="inline" fill="#20B7E8" d="M35.732,21.956c0,1.417-1.149,2.566-2.566,2.566h-5.432c-1.417,0-2.566-1.149-2.566-2.566
		V17.45c0-1.417,1.149-2.566,2.566-2.566h5.432c1.417,0,2.566,1.149,2.566,2.566V21.956z"/>
	<path display="inline" fill="#20B7E8" d="M46.999,21.956c0,1.417-1.149,2.566-2.566,2.566h-5.432c-1.417,0-2.566-1.149-2.566-2.566
		V17.45c0-1.417,1.149-2.566,2.566-2.566h5.432c1.417,0,2.566,1.149,2.566,2.566V21.956z"/>
	<path display="inline" fill="#20B7E8" d="M24.594,32.329c0,1.417-1.149,2.566-2.566,2.566h-5.432c-1.417,0-2.566-1.149-2.566-2.566
		v-4.507c0-1.417,1.149-2.566,2.566-2.566h5.432c1.417,0,2.566,1.149,2.566,2.566V32.329z"/>
	<path display="inline" fill="#20B7E8" d="M35.732,32.329c0,1.417-1.149,2.566-2.566,2.566h-5.432c-1.417,0-2.566-1.149-2.566-2.566
		v-4.507c0-1.417,1.149-2.566,2.566-2.566h5.432c1.417,0,2.566,1.149,2.566,2.566V32.329z"/>
	<path display="inline" fill="#20B7E8" d="M46.999,32.329c0,1.417-1.149,2.566-2.566,2.566h-5.432c-1.417,0-2.566-1.149-2.566-2.566
		v-4.507c0-1.417,1.149-2.566,2.566-2.566h5.432c1.417,0,2.566,1.149,2.566,2.566V32.329z"/>
	<path display="inline" fill="#20B7E8" d="M24.594,42.575c0,1.417-1.149,2.565-2.566,2.565h-5.432c-1.417,0-2.566-1.148-2.566-2.565
		v-4.507c0-1.417,1.149-2.566,2.566-2.566h5.432c1.417,0,2.566,1.149,2.566,2.566V42.575z"/>
	<path display="inline" fill="#20B7E8" d="M35.732,42.575c0,1.417-1.149,2.565-2.566,2.565h-5.432c-1.417,0-2.566-1.148-2.566-2.565
		v-4.507c0-1.417,1.149-2.566,2.566-2.566h5.432c1.417,0,2.566,1.149,2.566,2.566V42.575z"/>
	<path display="inline" fill="#20B7E8" d="M46.999,42.575c0,1.417-1.149,2.565-2.566,2.565h-5.432c-1.417,0-2.566-1.148-2.566-2.565
		v-4.507c0-1.417,1.149-2.566,2.566-2.566h5.432c1.417,0,2.566,1.149,2.566,2.566V42.575z"/>
</g>
<g id="security" display="none">
	<g display="inline">
		<path fill="#20B7E8" d="M40.852,17.689c-3.821,0-7.3,1.985-9.248,5.229h-3.696v0.787H10.816l-3.888,2.651l3.754,5.898l1.606-0.962
			l1.388,0.756l1.168-0.876l1.134,1.275l1.967-2.293h1.036l1.501,1.826l0.67-0.913l1.201,1.867l1.588-2.78h1.099v1.672h2.508v1.553
			h3.682c1.833,3.607,5.527,5.897,9.621,5.897c5.952,0,10.794-4.843,10.794-10.795C51.646,22.531,46.804,17.689,40.852,17.689z
			 M40.852,38.081c-3.989,0-7.409-2.433-8.859-5.896h-3.249v-1.553h-2.508v-1.672h-2.986l-0.956,1.672l-1.075-1.672l-0.789,1.075
			l-0.884-1.075h-2.15l-1.433,1.672l-0.956-1.075l-1.433,1.075l-1.314-0.717l-1.194,0.717l-2.508-3.941l2.627-1.792h17.917v-0.787
			h3.2v0.005c1.589-3.106,4.82-5.235,8.55-5.235c5.303,0,9.6,4.298,9.6,9.599C50.451,33.785,46.154,38.081,40.852,38.081z"/>
		<path fill="#20B7E8" d="M32.327,26.466H11.185c-0.19,0-0.345,0.154-0.345,0.345s0.154,0.345,0.345,0.345h21.142
			c0.19,0,0.345-0.154,0.345-0.345S32.518,26.466,32.327,26.466z"/>
		<circle fill="#20B7E8" cx="46.201" cy="28.007" r="1.692"/>
	</g>
</g>
<g id="report" display="none">
	<g id="reporting" display="inline">
		<g>
			<polygon fill="#26B7E8" points="14.429,44.029 13.067,43.51 16.572,33.717 19.396,38.652 25.542,22.593 30.672,36.02 
				37.473,15.495 41.035,24.933 45.588,13.192 46.936,13.75 41.02,29.012 37.562,19.857 30.77,40.357 25.541,26.674 19.654,42.053 
				16.875,37.193 			"/>
		</g>
	</g>
</g>
<g id="management" display="none">
	<g display="inline">
		<path fill="#20B7E8" d="M46.504,17.783c-0.617-0.605-1.333-1.045-2.063-1.427c-1.472-0.751-3.042-1.215-4.617-1.588
			c-3.161-0.725-6.396-0.978-9.619-0.99c3.223,0.003,6.46,0.373,9.558,1.234c1.541,0.436,3.053,1.018,4.413,1.82
			c0.675,0.404,1.308,0.881,1.805,1.448c0.497,0.562,0.828,1.237,0.792,1.897c-0.027,0.659-0.403,1.271-0.924,1.772
			c-0.521,0.503-1.17,0.908-1.847,1.257c-0.575,0.293-1.183,0.536-1.801,0.753c-0.847,0.298-1.719,0.544-2.599,0.75
			c-3.063,0.7-6.236,0.945-9.395,0.957c-2.596-0.009-5.203-0.186-7.75-0.634c-0.55-0.098-1.098-0.203-1.642-0.327
			c-1.523-0.359-3.034-0.806-4.4-1.501c-0.675-0.35-1.326-0.752-1.845-1.257c-0.52-0.499-0.895-1.109-0.925-1.768
			c-0.036-0.658,0.292-1.333,0.789-1.894c0.496-0.566,1.128-1.043,1.802-1.449c1.36-0.803,2.871-1.385,4.414-1.821
			c3.096-0.864,6.332-1.235,9.556-1.237c-3.223,0.012-6.458,0.264-9.621,0.988c-1.575,0.372-3.144,0.836-4.616,1.588
			c-0.731,0.38-1.449,0.823-2.066,1.428c-0.61,0.591-1.144,1.419-1.174,2.398c-0.034,0.979,0.456,1.872,1.041,2.523
			c0.304,0.341,0.637,0.641,0.985,0.912c0.178,0.14,0.362,0.271,0.549,0.395c0.161,0.108,0.324,0.212,0.489,0.312
			c1.467,0.859,3.036,1.457,4.63,1.906c0.029,0.008,0.057,0.014,0.084,0.021c3.171,0.872,6.441,1.238,9.7,1.239
			c3.289-0.001,6.587-0.378,9.784-1.265c1.142-0.324,2.269-0.726,3.356-1.242c0.431-0.204,0.856-0.422,1.272-0.666
			c0.165-0.099,0.326-0.204,0.488-0.312c0.184-0.124,0.364-0.252,0.541-0.389c0.353-0.273,0.687-0.575,0.993-0.917
			c0.584-0.652,1.071-1.545,1.036-2.522C47.648,19.201,47.113,18.375,46.504,17.783z"/>
		<g>
			<path fill="#20B7E8" d="M46.509,24.319c-0.269-0.264-0.56-0.493-0.86-0.702c-0.177,0.137-0.357,0.266-0.541,0.389
				c0.318,0.248,0.617,0.514,0.875,0.808c0.497,0.556,0.825,1.254,0.789,1.885c-0.03,0.686-0.403,1.273-0.919,1.778
				c-0.004,0.002-0.006,0.004-0.008,0.006c-0.521,0.504-1.169,0.908-1.847,1.257c-1.366,0.695-2.878,1.146-4.402,1.501
				c-3.06,0.701-6.239,0.945-9.389,0.956c-3.166-0.012-6.332-0.263-9.396-0.962c-1.524-0.36-3.035-0.808-4.4-1.503
				c-0.263-0.137-0.519-0.284-0.768-0.44c-0.391-0.243-0.759-0.509-1.076-0.816c-0.519-0.494-0.894-1.125-0.922-1.754
				c-0.035-0.687,0.295-1.342,0.791-1.909c0.257-0.29,0.552-0.555,0.868-0.801c-0.187-0.124-0.371-0.255-0.549-0.395
				c-0.297,0.208-0.583,0.434-0.85,0.694c-0.307,0.302-0.589,0.646-0.804,1.049c-0.214,0.392-0.358,0.886-0.373,1.331
				c-0.037,1.009,0.452,1.883,1.038,2.542c0.34,0.381,0.716,0.709,1.112,1.005c0.182,0.136,0.366,0.265,0.555,0.387
				c0.119,0.077,0.237,0.155,0.357,0.228c1.466,0.858,3.035,1.458,4.629,1.907c3.194,0.889,6.5,1.26,9.779,1.262
				c3.297-0.001,6.589-0.377,9.787-1.264c1.596-0.451,3.164-1.047,4.63-1.906c0.123-0.074,0.243-0.154,0.364-0.231
				c0.187-0.121,0.368-0.248,0.548-0.384c0.395-0.294,0.771-0.622,1.11-1.002c0.295-0.333,0.56-0.708,0.753-1.135
				c0.192-0.415,0.305-0.925,0.288-1.371C47.651,25.723,47.116,24.917,46.509,24.319z"/>
		</g>
		<g>
			<path fill="#20B7E8" d="M45.755,36.761c-0.176,0.141-0.356,0.274-0.538,0.401c0.275,0.222,0.538,0.455,0.765,0.716
				c0.498,0.556,0.826,1.252,0.79,1.884c-0.03,0.688-0.406,1.279-0.927,1.784c-0.521,0.507-1.169,0.908-1.847,1.258
				c-1.366,0.695-2.878,1.145-4.402,1.502c-3.06,0.699-6.239,0.943-9.389,0.956c-3.166-0.013-6.332-0.266-9.396-0.965
				c-1.524-0.359-3.035-0.807-4.4-1.503c-0.676-0.349-1.325-0.752-1.844-1.256c-0.519-0.492-0.894-1.125-0.922-1.753
				c-0.035-0.688,0.295-1.342,0.791-1.91c0.225-0.256,0.487-0.486,0.759-0.707c-0.186-0.128-0.368-0.265-0.546-0.407
				c-0.258,0.186-0.509,0.384-0.743,0.612c-0.308,0.302-0.59,0.647-0.805,1.051c-0.214,0.392-0.358,0.885-0.373,1.331
				c-0.037,1.007,0.452,1.88,1.038,2.541c0.594,0.666,1.294,1.182,2.024,1.619c1.466,0.858,3.035,1.457,4.629,1.905
				c3.194,0.888,6.5,1.261,9.779,1.263c3.297,0,6.589-0.377,9.787-1.263c1.596-0.453,3.164-1.047,4.63-1.907
				c0.728-0.436,1.429-0.951,2.022-1.617c0.295-0.331,0.56-0.709,0.753-1.135c0.192-0.416,0.307-0.925,0.288-1.37
				c-0.026-1.006-0.562-1.812-1.169-2.411C46.271,37.149,46.017,36.948,45.755,36.761z"/>
			<path fill="#20B7E8" d="M46.509,31.017c-0.307-0.298-0.641-0.547-0.982-0.78c-0.18,0.136-0.361,0.263-0.548,0.384
				c0.365,0.272,0.714,0.561,1.004,0.893c0.497,0.556,0.825,1.252,0.789,1.883c-0.03,0.69-0.406,1.28-0.927,1.787
				c-0.521,0.504-1.169,0.908-1.847,1.256c-1.365,0.694-2.878,1.144-4.402,1.501c-3.06,0.7-6.239,0.946-9.389,0.958
				c-3.166-0.012-6.333-0.265-9.397-0.964c-1.522-0.36-3.034-0.808-4.399-1.504c-0.676-0.351-1.325-0.752-1.844-1.256
				c-0.519-0.493-0.894-1.124-0.922-1.754c-0.035-0.688,0.295-1.341,0.791-1.909c0.289-0.328,0.634-0.615,0.997-0.886
				c-0.189-0.122-0.373-0.251-0.555-0.387c-0.339,0.229-0.669,0.476-0.972,0.77c-0.308,0.303-0.59,0.647-0.805,1.05
				c-0.214,0.393-0.358,0.886-0.373,1.332c-0.037,1.007,0.452,1.882,1.038,2.54c0.273,0.309,0.573,0.579,0.883,0.83
				c0.178,0.143,0.36,0.279,0.546,0.407c0.195,0.134,0.394,0.263,0.595,0.383c1.466,0.859,3.035,1.458,4.63,1.907
				c3.193,0.889,6.5,1.261,9.779,1.264c3.297-0.001,6.589-0.38,9.787-1.264c1.596-0.454,3.164-1.049,4.63-1.907
				c0.204-0.124,0.403-0.252,0.603-0.389c0.182-0.127,0.362-0.261,0.538-0.401c0.311-0.249,0.608-0.521,0.882-0.827
				c0.295-0.333,0.561-0.708,0.753-1.135c0.192-0.417,0.307-0.926,0.288-1.37C47.651,32.422,47.115,31.615,46.509,31.017z"/>
		</g>
	</g>
</g>
<g id="diagnostics" display="none">
	<g display="inline">
		<g>
			<path fill="#20B7E8" d="M33.697,31.596l-0.336-0.261c-0.423-0.328-10.353-8.095-11.774-13.297
				c-0.792-2.897-0.585-5.226,0.612-6.92c1.618-2.286,4.425-2.516,4.544-2.525l0.08,1.093C26.8,9.687,24.4,9.895,23.089,11.759
				c-0.995,1.414-1.144,3.429-0.444,5.991c1.187,4.343,9.292,11.038,11.053,12.453c1.761-1.415,9.865-8.111,11.053-12.453
				c0.7-2.567,0.55-4.585-0.451-5.999c-1.322-1.869-3.704-2.064-3.729-2.065l0.08-1.093c0.118,0.009,2.926,0.239,4.544,2.525
				c1.198,1.694,1.404,4.023,0.612,6.92c-1.42,5.202-11.352,12.969-11.773,13.297L33.697,31.596z"/>
		</g>
		<g>
			<path fill="#20B7E8" d="M25.75,9.125c0-0.786,1.784-0.563,2.107-0.563c0.323,0,1.065,0.017,0.895,0.869
				c-0.168,0.833-0.922,0.599-1.501,0.522C26.673,9.877,25.75,9.795,25.75,9.125z"/>
		</g>
		<g>
			<path fill="#20B7E8" d="M41.806,9.125c0-0.786-1.784-0.563-2.107-0.563s-1.066,0.017-0.894,0.869
				c0.166,0.833,0.92,0.599,1.499,0.522C40.884,9.877,41.806,9.795,41.806,9.125z"/>
		</g>
		<g>
			<path fill="#20B7E8" d="M24.472,50.55c-2.827,0-5.542-1.168-7.704-3.369c-5.059-5.15-1.587-11.435,0.71-15.593
				c0.919-1.666,1.961-3.552,1.748-4.247c-0.965-3.146-4.531-3.667-4.683-3.688l0.256-1.956c0.203,0.026,4.971,0.692,6.312,5.065
				c0.458,1.495-0.585,3.385-1.907,5.779c-2.253,4.079-5.058,9.156-1.029,13.258c2.293,2.334,5.324,3.259,8.317,2.533
				c2.885-0.698,5.189-2.784,6.017-5.442c1.32-4.254,0.224-11.767,0.213-11.843l1.951-0.291c0.049,0.326,1.173,8.039-0.281,12.719
				c-1.03,3.317-3.88,5.913-7.435,6.774C26.126,50.451,25.294,50.55,24.472,50.55z"/>
		</g>
		<g>
			<circle fill="#20B7E8" cx="15.305" cy="22.675" r="4.246"/>
		</g>
		<g>
			
				<rect x="25.488" y="26.929" transform="matrix(0.7278 0.6858 -0.6858 0.7278 27.3764 -13.1389)" fill="#20B7E8" width="9.502" height="1.973"/>
		</g>
		<g>
			
				<rect x="36.22" y="23.165" transform="matrix(0.6853 0.7283 -0.7283 0.6853 32.0418 -18.3112)" fill="#20B7E8" width="1.974" height="9.502"/>
		</g>
	</g>
</g>
<g id="dashboard">
	<g>
		<path fill="#183C47" d="M30.394,49.346c-10.637,0-19.291-8.652-19.291-19.29c0-10.636,8.653-19.29,19.291-19.29
			c10.636,0,19.291,8.653,19.291,19.29C49.685,40.693,41.03,49.346,30.394,49.346z M30.394,15.958
			c-7.774,0-14.099,6.325-14.099,14.099c0,7.774,6.325,14.1,14.099,14.1c7.775,0,14.1-6.326,14.1-14.1
			C44.494,22.283,38.169,15.958,30.394,15.958z"/>
	</g>
	<circle fill="#183C47" cx="30.348" cy="18.707" r="1.547"/>
	<circle fill="#183C47" cx="30.314" cy="29.282" r="2.368"/>
	<circle fill="#183C47" cx="21.871" cy="22.276" r="1.547"/>
	<circle fill="#183C47" cx="18.954" cy="29.009" r="1.547"/>
	<circle fill="#183C47" cx="42.108" cy="29.009" r="1.547"/>
	<circle fill="#183C47" cx="39.146" cy="22.276" r="1.547"/>
	<polygon fill="#183C47" points="37.262,23.961 34.866,26.662 32.472,29.365 31.635,28.271 30.797,27.177 34.03,25.57 	"/>
</g>
<g id="acct" display="none">
	<g display="inline">
		<defs>
			<polygon id="SVGID_1_" points="16.475,53.07 2.566,28.981 16.475,4.891 44.293,4.891 58.2,28.981 44.293,53.07 			"/>
		</defs>
		<clipPath id="SVGID_2_">
			<use xlink:href="#SVGID_1_"  overflow="visible"/>
		</clipPath>
		<g clip-path="url(#SVGID_2_)">
			<path fill="#183C47" d="M64.821,16.277H40.62c-0.598-1.733-0.801-2.485-1.729-2.485H23.574c-0.651,0-1.26,0.742-1.26,1.658v0.653
				H36.74c0.93,0,1.132,0.751,1.729,2.483h24.2c0.917,0,1.657,0.741,1.657,1.656v23.636h0.494c0.914,0,1.656-0.741,1.656-1.655
				v-24.29C66.478,17.018,65.735,16.277,64.821,16.277z"/>
		</g>
		<g clip-path="url(#SVGID_2_)">
			<path fill="#183C47" d="M61.984,19.399H37.78c-0.595-1.734-0.795-2.485-1.728-2.485H20.735c-0.65,0-1.258,0.742-1.258,1.656
				v0.655h14.425c0.93,0,1.131,0.751,1.729,2.483h24.201c0.916,0,1.656,0.742,1.656,1.656V47h0.496c0.914,0,1.655-0.742,1.655-1.656
				V21.055C63.64,20.139,62.898,19.399,61.984,19.399z"/>
		</g>
		<g clip-path="url(#SVGID_2_)">
			<path fill="#183C47" d="M59.188,22.509h-24.2c-0.599-1.735-0.8-2.486-1.729-2.486H17.941c-0.652,0-1.261,0.742-1.261,1.658v2.483
				V45.97v2.484c0,0.914,0.742,1.655,1.657,1.655h8.352v-8.818c-0.73,0.811-1.099,2.312-1.099,5.162c0,0,0.292,2.104-0.928,2.104
				c-1.222,0-1.461-1.387-1.461-1.387s-2.127-7.462,4.035-9.374c-1.19-0.96-1.953-2.432-1.953-4.081c0-2.894,2.345-5.239,5.24-5.239
				c2.894,0,5.238,2.345,5.238,5.239c0,1.68-0.789,3.175-2.019,4.134c5.965,1.99,3.875,9.321,3.875,9.321s-0.239,1.387-1.461,1.387
				c-1.219,0-0.929-2.104-0.929-2.104c0-2.424-0.265-3.874-0.796-4.75v8.406h24.756c0.916,0,1.657-0.741,1.657-1.655v-24.29
				C60.845,23.25,60.104,22.509,59.188,22.509z"/>
		</g>
	</g>
</g>
<g id="Layer_2">
	<g>
		<path fill="#183C47" d="M44.949,55.081H15.371L0.582,29.465L15.371,3.85h29.578l14.789,25.616L44.949,55.081z M16.505,53.116
			h27.31l13.656-23.651L43.814,5.814h-27.31L2.851,29.465L16.505,53.116z"/>
	</g>
</g>
</svg>
