<?xml version="1.0" encoding="utf-8"?>
<!-- Generator: Adobe Illustrator 15.0.0, SVG Export Plug-In . SVG Version: 6.00 Build 0)  -->
<!DOCTYPE svg PUBLIC "-//W3C//DTD SVG 1.1//EN" "http://www.w3.org/Graphics/SVG/1.1/DTD/svg11.dtd">
<svg version="1.1" xmlns="http://www.w3.org/2000/svg" xmlns:xlink="http://www.w3.org/1999/xlink" x="0px" y="0px" width="60px"
	 height="60px" viewBox="0 0 60 60" enable-background="new 0 0 60 60" xml:space="preserve">
<g id="dashboard">
	<g>
		<path fill="#20B7E8" d="M30.394,49.346c-10.637,0-19.291-8.652-19.291-19.29c0-10.636,8.653-19.29,19.291-19.29
			c10.636,0,19.291,8.653,19.291,19.29C49.685,40.693,41.03,49.346,30.394,49.346z M30.394,15.958
			c-7.774,0-14.099,6.325-14.099,14.099c0,7.774,6.325,14.1,14.099,14.1c7.775,0,14.1-6.326,14.1-14.1
			C44.494,22.283,38.169,15.958,30.394,15.958z"/>
	</g>
	<circle fill="#20B7E8" cx="30.348" cy="18.707" r="1.547"/>
	<circle fill="#20B7E8" cx="30.314" cy="29.282" r="2.368"/>
	<circle fill="#20B7E8" cx="21.871" cy="22.276" r="1.547"/>
	<circle fill="#20B7E8" cx="18.954" cy="29.009" r="1.547"/>
	<circle fill="#20B7E8" cx="42.108" cy="29.009" r="1.547"/>
	<circle fill="#20B7E8" cx="39.146" cy="22.276" r="1.547"/>
	<polygon fill="#20B7E8" points="37.262,23.961 34.866,26.662 32.472,29.365 31.635,28.271 30.797,27.177 34.03,25.57 	"/>
</g>
<g id="acct" display="none">
	<g display="inline">
		<defs>
			<polygon id="SVGID_1_" points="16.475,53.07 2.566,28.981 16.475,4.891 44.293,4.891 58.2,28.981 44.293,53.07 			"/>
		</defs>
		<clipPath id="SVGID_2_">
			<use xlink:href="#SVGID_1_"  overflow="visible"/>
		</clipPath>
		<g clip-path="url(#SVGID_2_)">
			<path fill="#20B7E8" d="M64.821,16.277H40.62c-0.598-1.733-0.801-2.485-1.729-2.485H23.574c-0.651,0-1.26,0.742-1.26,1.658v0.653
				H36.74c0.93,0,1.132,0.751,1.729,2.483h24.2c0.917,0,1.657,0.741,1.657,1.656v23.636h0.494c0.914,0,1.656-0.741,1.656-1.655
				v-24.29C66.478,17.018,65.735,16.277,64.821,16.277z"/>
		</g>
		<g clip-path="url(#SVGID_2_)">
			<path fill="#20B7E8" d="M61.984,19.399H37.78c-0.595-1.734-0.795-2.485-1.728-2.485H20.735c-0.65,0-1.258,0.742-1.258,1.656
				v0.655h14.425c0.93,0,1.131,0.751,1.729,2.483h24.201c0.916,0,1.656,0.742,1.656,1.656V47h0.496c0.914,0,1.655-0.742,1.655-1.656
				V21.055C63.64,20.139,62.898,19.399,61.984,19.399z"/>
		</g>
		<g clip-path="url(#SVGID_2_)">
			<path fill="#20B7E8" d="M59.188,22.509h-24.2c-0.599-1.735-0.8-2.486-1.729-2.486H17.941c-0.652,0-1.261,0.742-1.261,1.658v2.483
				V45.97v2.484c0,0.914,0.742,1.655,1.657,1.655h8.352v-8.818c-0.73,0.811-1.099,2.312-1.099,5.162c0,0,0.292,2.104-0.928,2.104
				c-1.222,0-1.461-1.387-1.461-1.387s-2.127-7.462,4.035-9.374c-1.19-0.96-1.953-2.432-1.953-4.081c0-2.894,2.345-5.239,5.24-5.239
				c2.894,0,5.238,2.345,5.238,5.239c0,1.68-0.789,3.175-2.019,4.134c5.965,1.99,3.875,9.321,3.875,9.321s-0.239,1.387-1.461,1.387
				c-1.219,0-0.929-2.104-0.929-2.104c0-2.424-0.265-3.874-0.796-4.75v8.406h24.756c0.916,0,1.657-0.741,1.657-1.655v-24.29
				C60.845,23.25,60.104,22.509,59.188,22.509z"/>
		</g>
	</g>
</g>
<g id="Layer_2">
	<g>
		<path fill="#20B7E8" d="M44.949,55.081H15.371L0.582,29.465L15.371,3.85h29.578l14.789,25.616L44.949,55.081z M16.505,53.116
			h27.31l13.656-23.651L43.814,5.814h-27.31L2.851,29.465L16.505,53.116z"/>
	</g>
</g>
</svg>
