<?xml version="1.0" encoding="utf-8"?>
<!-- Generator: Adobe Illustrator 15.0.0, SVG Export Plug-In . SVG Version: 6.00 Build 0)  -->
<!DOCTYPE svg PUBLIC "-//W3C//DTD SVG 1.1//EN" "http://www.w3.org/Graphics/SVG/1.1/DTD/svg11.dtd">
<svg version="1.1" xmlns="http://www.w3.org/2000/svg" xmlns:xlink="http://www.w3.org/1999/xlink" x="0px" y="0px" width="60px"
	 height="60px" viewBox="0 0 60 60" enable-background="new 0 0 60 60" xml:space="preserve">
<g id="diagnostics">
	<g>
		<g>
			<path fill="#20B7E8" d="M33.697,31.596l-0.336-0.261c-0.423-0.328-10.353-8.095-11.774-13.297
				c-0.792-2.897-0.585-5.226,0.612-6.92c1.618-2.286,4.425-2.516,4.544-2.525l0.08,1.093C26.8,9.687,24.4,9.895,23.089,11.759
				c-0.995,1.414-1.144,3.429-0.444,5.991c1.187,4.343,9.292,11.038,11.053,12.453c1.761-1.415,9.865-8.111,11.053-12.453
				c0.7-2.567,0.55-4.585-0.451-5.999c-1.322-1.869-3.704-2.064-3.729-2.065l0.08-1.093c0.118,0.009,2.926,0.239,4.544,2.525
				c1.198,1.694,1.404,4.023,0.612,6.92c-1.42,5.202-11.352,12.969-11.773,13.297L33.697,31.596z"/>
		</g>
		<g>
			<path fill="#20B7E8" d="M25.75,9.125c0-0.786,1.784-0.563,2.107-0.563c0.323,0,1.065,0.017,0.895,0.869
				c-0.168,0.833-0.922,0.599-1.501,0.522C26.673,9.877,25.75,9.795,25.75,9.125z"/>
		</g>
		<g>
			<path fill="#20B7E8" d="M41.806,9.125c0-0.786-1.784-0.563-2.107-0.563s-1.066,0.017-0.894,0.869
				c0.166,0.833,0.92,0.599,1.499,0.522C40.884,9.877,41.806,9.795,41.806,9.125z"/>
		</g>
		<g>
			<path fill="#20B7E8" d="M24.472,50.55c-2.827,0-5.542-1.168-7.704-3.369c-5.059-5.15-1.587-11.435,0.71-15.593
				c0.919-1.666,1.961-3.552,1.748-4.247c-0.965-3.146-4.531-3.667-4.683-3.688l0.256-1.956c0.203,0.026,4.971,0.692,6.312,5.065
				c0.458,1.495-0.585,3.385-1.907,5.779c-2.253,4.079-5.058,9.156-1.029,13.258c2.293,2.334,5.324,3.259,8.317,2.533
				c2.885-0.698,5.189-2.784,6.017-5.442c1.32-4.254,0.224-11.767,0.213-11.843l1.951-0.291c0.049,0.326,1.173,8.039-0.281,12.719
				c-1.03,3.317-3.88,5.913-7.435,6.774C26.126,50.451,25.294,50.55,24.472,50.55z"/>
		</g>
		<g>
			<circle fill="#20B7E8" cx="15.305" cy="22.675" r="4.246"/>
		</g>
		<g>
			
				<rect x="25.488" y="26.929" transform="matrix(0.7278 0.6858 -0.6858 0.7278 27.3764 -13.1389)" fill="#20B7E8" width="9.502" height="1.973"/>
		</g>
		<g>
			
				<rect x="36.22" y="23.165" transform="matrix(0.6853 0.7283 -0.7283 0.6853 32.0418 -18.3112)" fill="#20B7E8" width="1.974" height="9.502"/>
		</g>
	</g>
</g>
<g id="dashboard" display="none">
	<g display="inline">
		<path fill="#20B7E8" d="M30.394,49.346c-10.637,0-19.291-8.652-19.291-19.29c0-10.636,8.653-19.29,19.291-19.29
			c10.636,0,19.291,8.653,19.291,19.29C49.685,40.693,41.03,49.346,30.394,49.346z M30.394,15.958
			c-7.774,0-14.099,6.325-14.099,14.099c0,7.774,6.325,14.1,14.099,14.1c7.775,0,14.1-6.326,14.1-14.1
			C44.494,22.283,38.169,15.958,30.394,15.958z"/>
	</g>
	<circle display="inline" fill="#20B7E8" cx="30.348" cy="18.707" r="1.547"/>
	<circle display="inline" fill="#20B7E8" cx="30.314" cy="29.282" r="2.368"/>
	<circle display="inline" fill="#20B7E8" cx="21.871" cy="22.276" r="1.547"/>
	<circle display="inline" fill="#20B7E8" cx="18.954" cy="29.009" r="1.547"/>
	<circle display="inline" fill="#20B7E8" cx="42.108" cy="29.009" r="1.547"/>
	<circle display="inline" fill="#20B7E8" cx="39.146" cy="22.276" r="1.547"/>
	<polygon display="inline" fill="#20B7E8" points="37.262,23.961 34.866,26.662 32.472,29.365 31.635,28.271 30.797,27.177 
		34.03,25.57 	"/>
</g>
<g id="acct" display="none">
	<g display="inline">
		<defs>
			<polygon id="SVGID_1_" points="16.475,53.07 2.566,28.981 16.475,4.891 44.293,4.891 58.2,28.981 44.293,53.07 			"/>
		</defs>
		<clipPath id="SVGID_2_">
			<use xlink:href="#SVGID_1_"  overflow="visible"/>
		</clipPath>
		<g clip-path="url(#SVGID_2_)">
			<path fill="#20B7E8" d="M64.821,16.277H40.62c-0.598-1.733-0.801-2.485-1.729-2.485H23.574c-0.651,0-1.26,0.742-1.26,1.658v0.653
				H36.74c0.93,0,1.132,0.751,1.729,2.483h24.2c0.917,0,1.657,0.741,1.657,1.656v23.636h0.494c0.914,0,1.656-0.741,1.656-1.655
				v-24.29C66.478,17.018,65.735,16.277,64.821,16.277z"/>
		</g>
		<g clip-path="url(#SVGID_2_)">
			<path fill="#20B7E8" d="M61.984,19.399H37.78c-0.595-1.734-0.795-2.485-1.728-2.485H20.735c-0.65,0-1.258,0.742-1.258,1.656
				v0.655h14.425c0.93,0,1.131,0.751,1.729,2.483h24.201c0.916,0,1.656,0.742,1.656,1.656V47h0.496c0.914,0,1.655-0.742,1.655-1.656
				V21.055C63.64,20.139,62.898,19.399,61.984,19.399z"/>
		</g>
		<g clip-path="url(#SVGID_2_)">
			<path fill="#20B7E8" d="M59.188,22.509h-24.2c-0.599-1.735-0.8-2.486-1.729-2.486H17.941c-0.652,0-1.261,0.742-1.261,1.658v2.483
				V45.97v2.484c0,0.914,0.742,1.655,1.657,1.655h8.352v-8.818c-0.73,0.811-1.099,2.312-1.099,5.162c0,0,0.292,2.104-0.928,2.104
				c-1.222,0-1.461-1.387-1.461-1.387s-2.127-7.462,4.035-9.374c-1.19-0.96-1.953-2.432-1.953-4.081c0-2.894,2.345-5.239,5.24-5.239
				c2.894,0,5.238,2.345,5.238,5.239c0,1.68-0.789,3.175-2.019,4.134c5.965,1.99,3.875,9.321,3.875,9.321s-0.239,1.387-1.461,1.387
				c-1.219,0-0.929-2.104-0.929-2.104c0-2.424-0.265-3.874-0.796-4.75v8.406h24.756c0.916,0,1.657-0.741,1.657-1.655v-24.29
				C60.845,23.25,60.104,22.509,59.188,22.509z"/>
		</g>
	</g>
</g>
<g id="Layer_2">
	<g>
		<path fill="#20B7E8" d="M44.949,55.081H15.371L0.582,29.465L15.371,3.85h29.578l14.789,25.616L44.949,55.081z M16.505,53.116
			h27.31l13.656-23.651L43.814,5.814h-27.31L2.851,29.465L16.505,53.116z"/>
	</g>
</g>
</svg>
